# xmcd
#
# Track frame offsets: 
#        150
#        13597
#        29071
#        41477
#        64213
#        75606
#        95781
#        109548
#        121619
#        135419
#        150644
#        168722
#        182520
#        202647
#        221472
#
# Disc length: 3113 seconds
#
# Revision: 1
# Processed by: cddbd v1.5.2PL0 Copyright (c) Steve Scherf et al.
# Submitted via: ExactAudioCopy v1.0b3
#
DISCID=be0c270f
DTITLE=The Cadillac Kings - Trouble in Store
DYEAR=2008
DGENRE=Blues
TTITLE0=Too Blue
TTITLE1=She's My Sugar Rush
TTITLE2=Hot Rod V8 Ford
TTITLE3=Around the Block
TTITLE4=Blue Cap Bounce
TTITLE5=(I'm in love with the) Chief of Police
TTITLE6=Stop Digging that Hole
TTITLE7=Tongue-tied
TTITLE8=Fries with that
TTITLE9=Less is More
TTITLE10=Mr Nip and Tuck
TTITLE11=North Sea Jump
TTITLE12=Chain Gang Boogie
TTITLE13=Trouble in Store
TTITLE14=Mama Drop the Hammer
EXTD=
EXTT0=
EXTT1=
EXTT2=
EXTT3=
EXTT4=
EXTT5=
EXTT6=
EXTT7=
EXTT8=
EXTT9=
EXTT10=
EXTT11=
EXTT12=
EXTT13=
EXTT14=
PLAYORDER=
